<svg width="25" height="24" viewBox="0 0 25 24" fill="none" xmlns="http://www.w3.org/2000/svg">
<path d="M11.369 16.6308C11.311 16.5743 11.063 16.3609 10.859 16.1622C9.576 14.9971 7.476 11.9576 6.835 10.3668C6.732 10.1252 6.514 9.51437 6.5 9.18802C6.5 8.8753 6.572 8.5772 6.718 8.29274C6.922 7.93814 7.243 7.65368 7.622 7.49781C7.885 7.39747 8.672 7.2416 8.686 7.2416C9.547 7.08573 10.946 7 12.492 7C13.965 7 15.307 7.08573 16.181 7.21335C16.195 7.22796 17.173 7.38383 17.508 7.55431C18.12 7.86702 18.5 8.47784 18.5 9.13151V9.18802C18.485 9.61374 18.105 10.509 18.091 10.509C17.449 12.0141 15.452 14.9834 14.125 16.1768C14.125 16.1768 13.784 16.5129 13.571 16.659C13.265 16.887 12.886 17 12.507 17C12.084 17 11.69 16.8724 11.369 16.6308Z" fill="#5F33E1"/>
</svg>
